<svg xmlns="http://www.w3.org/2000/svg" width="24" height="24" viewBox="0 0 24 24">
  <path fill="#00457C" d="M20.067 8.478c.492.315.844.825.983 1.46.545 2.463-.29 4.313-2.429 5.385-.397.2-.834.334-1.294.418-.769.14-1.554.192-2.333.14-.41-.027-.816-.09-1.22-.174-.6-.125-1.186-.307-1.757-.526-1.177-.452-2.305-1.032-3.375-1.703-.87-.544-1.703-1.146-2.497-1.804-.577-.48-1.126-.994-1.644-1.543-.497-.527-.957-1.092-1.37-1.697C2.436 7.492 2.023 6.5 1.836 5.412c-.121-.706-.092-1.41.086-2.1.22-.852.65-1.61 1.283-2.233C3.817.495 4.557.13 5.4.026c.4-.05.803-.06 1.2.004.688.107 1.286.425 1.813.87.4.337.724.744.985 1.194.395.678.64 1.418.823 2.182.23.962.37 1.94.498 2.92.067.51.158 1.015.277 1.51.215.9.558 1.756 1.017 2.557.334.58.747 1.098 1.24 1.55.358.328.76.59 1.21.77.51.207 1.044.31 1.601.273.72-.047 1.385-.264 1.985-.64.51-.32.936-.744 1.266-1.253.165-.255.303-.526.405-.812.113-.32.196-.65.253-.986.072-.428.084-.862.045-1.297-.057-.63-.23-1.227-.524-1.784-.256-.485-.61-.89-1.035-1.235-.69-.558-1.478-.912-2.34-1.11-.507-.116-1.024-.19-1.545-.23-.73-.055-1.46-.055-2.19-.004-.577.04-1.153.102-1.726.192-.92.145-1.822.367-2.704.665-.72.243-1.418.544-2.075.93-.524.31-1.018.666-1.477 1.074-.32.285-.616.595-.883.932-.24.304-.45.63-.63.975-.205.393-.37.804-.477 1.234-.093.373-.142.754-.145 1.14-.002.48.088.946.27 1.39.25.606.625 1.13 1.09 1.57.577.548 1.22 1.018 1.89 1.45.788.508 1.61.95 2.46 1.334.754.34 1.524.64 2.307.898.417.138.838.26 1.267.354.708.157 1.424.27 2.148.326.903.07 1.81.075 2.715.014.523-.035 1.04-.126 1.55-.262.49-.13.96-.312 1.407-.546.71-.372 1.31-.88 1.78-1.512.335-.45.585-.95.75-1.49.11-.36.178-.73.204-1.11.023-.33.007-.66-.05-.99-.1-.59-.328-1.13-.676-1.62-.263-.37-.592-.69-.974-.95"/>
</svg>

